<svg width="169" height="185" viewBox="0 0 169 185" fill="none" xmlns="http://www.w3.org/2000/svg">
<path fill-rule="evenodd" clip-rule="evenodd" d="M104.649 54.7976C113.411 58.2581 116.749 64.6488 113.017 74.0901C109.285 83.5315 102.478 85.9155 93.7165 82.455C84.9543 78.9944 81.6161 72.6037 85.3481 63.1623C89.08 53.721 95.8866 51.337 104.649 54.7976Z" fill="#00A9E0"/>
<path fill-rule="evenodd" clip-rule="evenodd" d="M95.3009 66.6293C95.6011 68.8915 96.5683 71.1018 98.0802 73.0045C98.2628 73.2339 98.5844 73.3324 98.8584 73.2518L100.668 72.6943C100.982 72.6013 101.319 72.7133 101.587 72.9117C102.536 73.6123 103.431 74.2784 104.443 74.9574C104.855 75.2341 105.127 75.6726 104.939 76.0727L104.129 77.7979C103.817 78.5743 103.293 78.594 102.832 78.3782C95.2497 74.8306 91.5893 66.724 94.6015 59.6872C94.778 59.2746 95.2204 59.0696 95.7639 59.3271C96.7662 59.8017 98.1298 60.4341 98.1298 60.4341C99.0153 60.762 98.9776 61.2764 98.8694 61.7066C98.6243 62.676 98.4213 63.4234 98.1433 64.4246C98.0635 64.7097 97.8835 65.0855 97.5579 65.182L95.8147 65.8824C95.4733 65.9835 95.2556 66.2881 95.3009 66.6293Z" fill="white"/>
<path fill-rule="evenodd" clip-rule="evenodd" d="M78.0161 18.0185C82.7277 15.2994 86.818 16.0845 89.7505 21.1615C92.6829 26.2385 91.3179 30.1719 86.6063 32.8911C81.8945 35.6103 77.8042 34.8252 74.8718 29.7482C71.9394 24.6712 73.3043 20.7377 78.0161 18.0185Z" fill="#00A9E0"/>
<path fill-rule="evenodd" clip-rule="evenodd" d="M79.8239 26.342C80.756 27.1921 81.9518 27.7828 83.2685 28.0496C83.4274 28.0817 83.5985 28.0089 83.6857 27.8773L84.2528 26.9975C84.3526 26.8463 84.5349 26.7738 84.719 26.7622C85.3696 26.7211 85.9854 26.6842 86.6551 26.6114C86.9278 26.5818 87.1989 26.6705 87.2619 26.9066L87.5333 27.9247C87.6775 28.3642 87.4629 28.559 87.191 28.6319C82.7211 29.8296 78.2875 27.703 77.0573 23.6542C76.9851 23.4168 77.0993 23.1727 77.4209 23.0882C78.0138 22.9322 78.8157 22.7144 78.8157 22.7144C79.307 22.538 79.4741 22.769 79.5814 22.9895C79.8228 23.4868 80.0029 23.8753 80.2416 24.3977C80.3094 24.5467 80.367 24.7698 80.2635 24.9264L79.7754 25.8432C79.667 26.0074 79.6832 26.2137 79.8239 26.342Z" fill="white"/>
<path fill-rule="evenodd" clip-rule="evenodd" d="M112.127 100.656C117.382 99.2485 121.13 101.065 122.647 106.728C124.165 112.39 121.828 115.837 116.573 117.244C111.318 118.652 107.57 116.835 106.052 111.173C104.534 105.51 106.871 102.064 112.127 100.656Z" fill="#00A9E0"/>
<path fill-rule="evenodd" clip-rule="evenodd" d="M111.779 108.756C112.49 109.798 113.518 110.648 114.738 111.211C114.885 111.278 115.068 111.247 115.184 111.139L115.938 110.413C116.07 110.289 116.264 110.26 116.446 110.292C117.088 110.401 117.696 110.507 118.365 110.59C118.637 110.624 118.88 110.773 118.887 111.017L118.917 112.07C118.956 112.531 118.702 112.672 118.421 112.68C113.795 112.817 109.97 109.727 109.705 105.504C109.689 105.256 109.857 105.045 110.189 105.036C110.802 105.021 111.633 104.994 111.633 104.994C112.151 104.935 112.261 105.198 112.314 105.438C112.435 105.977 112.521 106.397 112.633 106.96C112.664 107.121 112.669 107.351 112.532 107.48L111.846 108.259C111.703 108.394 111.671 108.599 111.779 108.756Z" fill="white"/>
<path opacity="0.6" fill-rule="evenodd" clip-rule="evenodd" d="M113.782 91.6219L112.196 92.8486C112.029 92.9776 111.927 93.1747 111.921 93.3865L111.855 95.3896C111.837 95.9486 111.208 96.2677 110.745 95.9521L109.087 94.8236C108.913 94.7051 108.694 94.67 108.49 94.7289L106.563 95.2851C106.025 95.4401 105.527 94.9408 105.684 94.4042L106.247 92.4803C106.306 92.2769 106.271 92.0581 106.153 91.8835L105.027 90.224C104.714 89.7604 105.034 89.1334 105.594 89.1166L107.599 89.0555C107.811 89.0499 108.008 88.9489 108.138 88.7827L109.37 87.2004C109.713 86.7593 110.41 86.8701 110.599 87.3968L111.277 89.2835C111.348 89.4827 111.504 89.6391 111.703 89.7113L113.589 90.3931C114.116 90.5838 114.225 91.2796 113.782 91.6219Z" fill="#F59C00"/>
<path opacity="0.4" fill-rule="evenodd" clip-rule="evenodd" d="M120.406 40.8293L117.432 43.1294C117.119 43.3713 116.928 43.7409 116.916 44.138L116.792 47.8939C116.758 48.942 115.579 49.5403 114.712 48.9486L111.603 46.8326C111.275 46.6104 110.865 46.5446 110.483 46.6551L106.87 47.6979C105.861 47.9886 104.928 47.0522 105.223 46.0462L106.277 42.4389C106.387 42.0576 106.323 41.6473 106.1 41.3198L103.991 38.2084C103.402 37.3391 104.004 36.1634 105.053 36.1319L108.812 36.0175C109.209 36.0069 109.579 35.8176 109.824 35.5059L112.133 32.5391C112.777 31.7119 114.082 31.9197 114.438 32.9073L115.708 36.4449C115.841 36.8183 116.134 37.1116 116.508 37.247L120.044 38.5253C121.031 38.883 121.237 40.1875 120.406 40.8293Z" fill="#F59C00"/>
<path opacity="0.8" fill-rule="evenodd" clip-rule="evenodd" d="M100.255 104.214L95.2649 106.303C94.7395 106.523 94.3366 106.965 94.1722 107.513L92.6011 112.686C92.1631 114.13 90.3014 114.523 89.3166 113.377L85.7847 109.28C85.4121 108.849 84.8659 108.605 84.2944 108.616L78.8853 108.721C77.3742 108.749 76.4262 107.1 77.2107 105.812L80.0195 101.191C80.3152 100.702 80.3785 100.108 80.1913 99.5703L78.4186 94.461C77.9248 93.034 79.1987 91.624 80.6681 91.9706L85.9344 93.2107C86.4906 93.344 87.0751 93.2185 87.5314 92.8764L91.8465 89.6132C93.0491 88.7032 94.786 89.4779 94.9119 90.9827L95.3591 96.3716C95.4047 96.9401 95.7033 97.4569 96.1723 97.7842L100.611 100.877C101.849 101.741 101.648 103.631 100.255 104.214Z" fill="#F59C00"/>
<path opacity="0.5" fill-rule="evenodd" clip-rule="evenodd" d="M79.4205 76.196L77.6359 77.5761C77.448 77.7212 77.3335 77.943 77.3264 78.1813L77.2522 80.4348C77.2316 81.0636 76.5241 81.4226 76.0037 81.0676L74.1385 79.798C73.9419 79.6647 73.6955 79.6252 73.4665 79.6915L71.2989 80.3172C70.6933 80.4916 70.1334 79.9298 70.3103 79.3262L70.9428 77.1618C71.0091 76.933 70.9704 76.6868 70.837 76.4903L69.5712 74.6235C69.2182 74.1019 69.5791 73.3965 70.2084 73.3776L72.4637 73.3089C72.7022 73.3026 72.9241 73.189 73.0709 73.002L74.4568 71.2219C74.8429 70.7256 75.6263 70.8503 75.8395 71.4428L76.6015 73.5653C76.6812 73.7894 76.8573 73.9654 77.0816 74.0467L79.2034 74.8136C79.7956 75.0282 79.9188 75.811 79.4205 76.196Z" fill="#F59C00"/>
<path fill-rule="evenodd" clip-rule="evenodd" d="M115.691 11.1513L111.924 14.0647C111.527 14.3712 111.285 14.8393 111.27 15.3424L111.114 20.0998C111.07 21.4274 109.577 22.1853 108.478 21.4357L104.54 18.7555C104.125 18.474 103.605 18.3907 103.122 18.5306L98.5457 19.8516C97.2671 20.2197 96.0852 19.0337 96.4586 17.7594L97.7939 13.1902C97.9339 12.7071 97.8522 12.1874 97.5705 11.7726L94.8982 7.83146C94.1531 6.73039 94.9149 5.2412 96.2435 5.20122L101.005 5.0563C101.508 5.04298 101.977 4.80311 102.287 4.40832L105.212 0.650374C106.027 -0.397387 107.681 -0.134198 108.131 1.11679L109.74 5.59767C109.908 6.07075 110.28 6.44221 110.754 6.61379L115.233 8.2329C116.483 8.68599 116.743 10.3384 115.691 11.1513Z" fill="#F59C00"/>
<path fill-rule="evenodd" clip-rule="evenodd" d="M81.8648 41.0381L81.6584 44.4215C81.6365 44.7776 81.7739 45.1266 82.0364 45.3706L84.5117 47.686C85.2026 48.3319 84.908 49.487 83.9911 49.7235L80.7082 50.5741C80.3627 50.6643 80.0741 50.9036 79.9223 51.228L78.4836 54.2972C78.081 55.1544 76.8912 55.2308 76.3837 54.4331L74.5621 51.5751C74.369 51.2736 74.0522 51.0735 73.6978 51.0298L70.3329 50.6116C69.3935 50.494 68.953 49.3877 69.5548 48.6577L71.7104 46.0411C71.9394 45.7653 72.0306 45.402 71.9646 45.0509L71.3236 41.722C71.1446 40.7942 72.0613 40.0324 72.9427 40.3783L76.0979 41.6189C76.4303 41.7507 76.8037 41.7259 77.1177 41.553L80.0862 39.9146C80.9154 39.4578 81.9227 40.0937 81.8648 41.0381Z" fill="#F59C00"/>
<path fill-rule="evenodd" clip-rule="evenodd" d="M122.487 116.337C122.555 113.374 128.251 112.634 133.552 112.735C137.659 112.813 145.908 113.715 145.908 116.606C145.908 118.72 145.234 119.64 142.346 120.135C140.613 120.433 127.506 121.822 124.289 119.764C123.177 119.052 122.45 117.967 122.487 116.337Z" fill="#E5FCFC"/>
<path fill-rule="evenodd" clip-rule="evenodd" d="M114.624 128.102L153.974 129.29C162.108 129.438 163.652 131.602 163.595 135.345C163.502 141.446 155.408 141.096 155.719 141.118C155.682 141.119 155.65 141.125 155.615 141.127C151.853 141.222 151.111 142.369 151.111 144.228C151.111 146.171 151.912 147.338 156.134 147.338C156.779 147.338 157.334 147.308 157.827 147.255C157.855 147.258 158.003 147.262 158.392 147.26C158.554 147.267 158.736 147.273 158.91 147.276C159.158 147.281 159.402 147.281 159.627 147.277C167.435 147.486 168.887 149.639 168.852 153.325C168.821 156.627 167.583 158.984 161.708 158.984H110.496L114.624 128.102Z" fill="#E5FCFC"/>
<path fill-rule="evenodd" clip-rule="evenodd" d="M101.83 116.017L50.4337 117.504C39.8095 117.689 37.7928 120.398 37.8676 125.087C37.989 132.728 48.5607 132.289 48.1548 132.316C48.2015 132.318 48.2439 132.326 48.2899 132.327C53.204 132.447 54.1724 133.882 54.1724 136.21C54.1724 138.645 53.1264 140.106 47.6117 140.105C46.7704 140.105 46.0455 140.068 45.4003 140.002C45.3644 140.006 45.1704 140.01 44.6632 140.008C44.452 140.017 44.2135 140.024 43.9865 140.028C43.6624 140.034 43.3442 140.033 43.0503 140.029C32.8522 140.291 30.9555 142.987 31.0008 147.604C31.0417 151.739 32.6589 154.689 40.3325 154.689H107.221L101.83 116.017Z" fill="#E5FCFC"/>
<path fill-rule="evenodd" clip-rule="evenodd" d="M138.78 180.928C138.78 183.177 122.594 185 102.628 185C82.6618 185 66.4762 183.177 66.4762 180.928C66.4762 178.68 82.6618 176.856 102.628 176.856C122.594 176.856 138.78 178.68 138.78 180.928Z" fill="#E7EFF5"/>
<g filter="url(#filter0_d)">
<path d="M67.775 108.188C66.509 108.185 65.5151 109.207 65.5151 110.473C65.515 124.479 65.5147 142.463 65.5147 156.002C65.5147 158.556 68.0443 160.627 71.1646 160.627H129.864C133.101 160.627 135.725 158.479 135.725 155.829V110.622C135.725 109.359 134.724 108.334 133.46 108.332C121.721 108.316 78.2099 108.213 67.775 108.188Z" fill="#92F0F9"/>
</g>
<path opacity="0.5" d="M97.0274 108.654H112.303V160.569H97.0274V108.654Z" fill="white"/>
<g opacity="0.74">
<path d="M135.725 124.008C106.235 109.903 66.8917 108.183 66.8917 108.183H133.437C134.7 108.183 135.725 109.207 135.725 110.471V124.008Z" fill="#6AE0F3" style="mix-blend-mode:multiply"/>
</g>
<path fill-rule="evenodd" clip-rule="evenodd" d="M42.9175 136.016C40.9598 135.944 40.0104 136.96 39.9423 138.776C39.8743 140.59 40.7438 141.676 42.7026 141.748C44.6602 141.822 45.6086 140.806 45.6766 138.99C45.7458 137.175 44.8752 136.089 42.9175 136.016Z" fill="#94E37A"/>
<path fill-rule="evenodd" clip-rule="evenodd" d="M54.9689 125.245C50.7641 121.98 49.2819 122.141 48.1382 123.441C46.9954 124.742 47.1054 126.14 51.3113 129.406C55.5171 132.67 56.9993 132.51 58.142 131.209C59.2857 129.909 59.1737 128.509 54.9689 125.245Z" fill="#00C4EB"/>
<path fill-rule="evenodd" clip-rule="evenodd" d="M149.989 128.001C147.312 129.699 146.396 131.022 147.598 132.981C148.798 134.939 150.37 134.686 153.046 132.989C155.722 131.292 156.638 129.967 155.437 128.01C154.236 126.051 152.665 126.304 149.989 128.001Z" fill="#FF7C9A"/>
<path fill-rule="evenodd" clip-rule="evenodd" d="M156.977 112.776C154.341 111.092 152.211 111.726 150.648 114.17C149.086 116.614 149.406 118.812 152.042 120.496C154.679 122.179 156.808 121.546 158.371 119.102C159.934 116.657 159.614 114.46 156.977 112.776Z" fill="#DAE7EF"/>
<path fill-rule="evenodd" clip-rule="evenodd" d="M28.3402 105.024C27.2197 105.744 26.0075 105.677 25.2619 105.38C22.7133 104.587 21.6126 101.403 21.8967 95.6537C22.0259 93.0388 22.4608 89.8857 23.0904 87.0033C24.1298 82.2452 24.7762 81.8012 25.7181 81.6344C25.9686 81.5909 26.2183 81.6054 26.4521 81.6716C26.8402 81.7814 27.1763 82.0359 27.4065 82.3881C27.0194 83.9505 26.7041 85.8364 26.5335 86.865C25.9157 90.5909 24.9928 98.298 25.5855 102.196C26.2611 103.404 27.5175 103.76 28.2286 101.248L30.5161 101.556C30.2283 102.606 30.1906 103.834 28.3402 105.024Z" fill="#FF7C9A"/>
<path fill-rule="evenodd" clip-rule="evenodd" d="M25.5859 102.196C25.5859 102.196 28.9994 104.518 27.7193 94.6608C26.8515 87.9789 26.5339 86.8651 26.5339 86.8651L27.0199 83.9506L27.4066 82.3884C27.447 82.4559 27.5269 82.583 27.5583 82.6589C29.5685 87.2242 30.4659 92.1691 30.8602 95.5493C30.918 96.0447 31.8676 103.973 27.7905 105.193C26.3563 105.466 25.6806 104.257 25.5859 102.196Z" fill="#FF406F"/>
<path fill-rule="evenodd" clip-rule="evenodd" d="M7.75883 68.2091C6.5581 68.7857 5.97985 69.8528 5.84194 70.643C5.18251 73.2286 7.31846 75.8342 12.366 78.6052C14.6617 79.8655 17.5761 81.1476 20.3621 82.122C24.9608 83.7306 25.6779 83.413 26.3136 82.6986C26.482 82.508 26.6004 82.2879 26.6666 82.0541C26.7764 81.6662 26.7357 81.2466 26.5563 80.8662C25.0221 80.3769 23.25 79.6571 22.2842 79.2632C18.7858 77.8367 11.7354 74.5836 8.72489 72.0364C8.04928 70.8279 8.40484 69.5721 10.9176 70.2829L11.8539 68.174C10.8083 67.8687 9.74238 67.2573 7.75883 68.2091Z" fill="#FF7C9A"/>
<path fill-rule="evenodd" clip-rule="evenodd" d="M8.72491 72.0363C8.72491 72.0363 8.53522 67.9134 16.2631 74.1688C21.5017 78.4092 22.2842 79.2632 22.2842 79.2632L25.0222 80.3768L26.5559 80.8663C26.5196 80.7965 26.4532 80.6619 26.4049 80.5953C23.5685 76.4915 19.8255 73.1363 17.152 71.0292C16.7602 70.7204 10.5028 65.7573 7.32626 68.5886C6.3425 69.6669 7.01826 70.8755 8.72491 72.0363Z" fill="#FF406F"/>
<path d="M7.32389 52.6698L45.304 110.73C47.1266 113.516 49.0462 114.205 51.8694 112.359C52.3882 112.02 58.1436 108.258 58.9817 107.711C61.0562 106.355 60.2811 105.17 59.1184 103.392C59.1184 103.392 20.7508 44.7396 19.5881 42.9623C18.4255 41.1849 17.6504 40 15.8723 41.1622L8.46356 46.0046C5.74231 47.7832 5.56708 49.9841 7.32389 52.6698Z" fill="#00A9E0"/>
<path opacity="0.74" d="M51.6674 112.006C45.2665 86.1647 19.0083 42.0096 19.0083 42.0096L39.7423 73.7059L59.3137 103.625C60.2826 105.106 60.3086 106.438 58.7759 107.44L51.6674 112.006Z" fill="#00A4C7"/>
<defs>
<filter id="filter0_d" x="65.5147" y="108.188" width="70.2103" height="55.4391" filterUnits="userSpaceOnUse" color-interpolation-filters="sRGB">
<feFlood flood-opacity="0" result="BackgroundImageFix"/>
<feColorMatrix in="SourceAlpha" type="matrix" values="0 0 0 0 0 0 0 0 0 0 0 0 0 0 0 0 0 0 127 0"/>
<feOffset dy="3"/>
<feColorMatrix type="matrix" values="0 0 0 0 0.227451 0 0 0 0 0.835294 0 0 0 0 0.945098 0 0 0 1 0"/>
<feBlend mode="normal" in2="BackgroundImageFix" result="effect1_dropShadow"/>
<feBlend mode="normal" in="SourceGraphic" in2="effect1_dropShadow" result="shape"/>
</filter>
</defs>
</svg>
