<svg width="112" height="112" viewBox="0 0 112 112" fill="none" xmlns="http://www.w3.org/2000/svg">
<path fill-rule="evenodd" clip-rule="evenodd" d="M51.1515 34.4836C51.1515 31.5938 53.9909 29.6088 57.0002 29.6088C60.0095 29.6088 62.8489 31.5938 62.8489 34.4836V60.3159C62.8489 63.2057 60.0095 65.1907 57.0002 65.1907C53.9909 65.1907 51.1515 63.2057 51.1515 60.3159V34.4836ZM57.0002 31.6088C54.6537 31.6088 53.1515 33.0935 53.1515 34.4836V60.3159C53.1515 61.706 54.6537 63.1907 57.0002 63.1907C59.3466 63.1907 60.8489 61.706 60.8489 60.3159V34.4836C60.8489 33.0935 59.3466 31.6088 57.0002 31.6088ZM53.0937 71.3756C52.2293 72.2308 51.6968 73.5146 51.6968 75.2255C51.6968 76.9368 52.2294 78.2213 53.0939 79.0757C53.9605 79.9321 55.2629 80.4622 57.0013 80.4622C58.7385 80.4622 60.0412 79.9321 60.9066 79.0756C61.7709 78.2204 62.3034 76.9365 62.3034 75.2255C62.3034 73.8284 61.9304 72.7263 61.3212 71.8975L61.3193 71.8949C60.4674 70.7281 59.0344 69.9889 57.0013 69.9889C55.2627 69.9889 53.9594 70.5191 53.0937 71.3756ZM51.6871 69.9538C53.0013 68.6536 54.8503 67.9889 57.0013 67.9889C59.5492 67.9889 61.6379 68.9406 62.9337 70.7143C63.8272 71.9305 64.3034 73.4613 64.3034 75.2255C64.3034 77.3613 63.6285 79.1958 62.3135 80.4972C60.9996 81.7974 59.1513 82.4622 57.0013 82.4622C54.85 82.4622 53.0026 81.7973 51.6881 80.4982C50.3716 79.1972 49.6968 77.3611 49.6968 75.2255C49.6968 73.0898 50.3717 71.2552 51.6871 69.9538Z" fill="#F59C00"/>
<path fill-rule="evenodd" clip-rule="evenodd" d="M0 56C0 86.9279 25.0721 112 56 112C86.9279 112 112 86.9279 112 56C112 25.0721 86.9279 0 56 0C25.0721 0 0 25.0721 0 56ZM109 55.9999C109 85.271 85.2711 109 56 109C26.7289 109 2.99998 85.271 2.99998 55.9999C2.99998 26.7288 26.7289 2.99987 56 2.99987C85.2711 2.99987 109 26.7288 109 55.9999Z" fill="#F59C00"/>
</svg>
