<svg width="54" height="54" viewBox="0 0 54 54" fill="none" xmlns="http://www.w3.org/2000/svg">
<path d="M27 54C41.9117 54 54 41.9117 54 27C54 12.0883 41.9117 0 27 0C12.0883 0 0 12.0883 0 27C0 41.9117 12.0883 54 27 54Z" fill="#F28D15"/>
<g clip-path="url(#clip0)">
<g clip-path="url(#clip1)">
<path fill-rule="evenodd" clip-rule="evenodd" d="M39.8029 20.219H33.9432C34.3636 19.933 34.7247 19.6489 34.9766 19.3943C36.4693 17.8982 36.4693 15.4631 34.9766 13.9669C33.5264 12.5132 30.9966 12.5114 29.5447 13.9669C28.7428 14.7694 26.6111 18.0366 26.9056 20.219H26.7722C27.0648 18.0366 24.9351 14.7694 24.1331 13.9669C22.6812 12.5114 20.1514 12.5132 18.7012 13.9669C17.2085 15.4631 17.2085 17.8982 18.6994 19.3943C18.9531 19.6489 19.3142 19.933 19.7347 20.219H13.8749C12.8545 20.219 12.0229 21.0473 12.0229 22.0638V26.6757C12.0229 27.1849 12.4378 27.5981 12.9489 27.5981H13.8749V38.6669C13.8749 39.6834 14.7065 40.5117 15.7269 40.5117H37.9509C38.9713 40.5117 39.8029 39.6834 39.8029 38.6669V27.5981H40.7289C41.24 27.5981 41.6549 27.1849 41.6549 26.6757V22.0638C41.6549 21.0473 40.8233 20.219 39.8029 20.219ZM20.0143 15.2677C20.3902 14.8914 20.8884 14.6847 21.4181 14.6847C21.9459 14.6847 22.4441 14.8914 22.8201 15.2677C24.0683 16.5185 25.3091 19.7136 24.8776 20.1582C24.8776 20.1582 24.7998 20.2191 24.535 20.2191C23.2553 20.2191 20.8125 18.8946 20.0143 18.0939C19.2383 17.3154 19.2383 16.0462 20.0143 15.2677ZM15.7269 38.667H25.9129V27.5982H15.7269V38.667ZM25.9129 25.7533H13.8749V22.0637H24.535H25.9129V25.7533ZM33.6635 15.2676C32.9135 14.5186 31.6097 14.5167 30.8577 15.2676C29.6095 16.5184 28.3687 19.7135 28.7983 20.1581C28.8002 20.16 28.878 20.219 29.1428 20.219C30.4225 20.219 32.8653 18.8944 33.6635 18.0938C34.4395 17.3153 34.4395 16.0461 33.6635 15.2676ZM37.9509 38.667H27.7649V27.5982H37.9509V38.667ZM27.7649 25.7533H39.8029V22.0637H29.1428H27.7649V25.7533Z" fill="white"/>
</g>
</g>
<defs>
<clipPath id="clip0">
<rect x="12.0229" y="12.876" width="30" height="28.0882" fill="white"/>
</clipPath>
<clipPath id="clip1">
<rect x="12.0229" y="12.876" width="29.6319" height="27.6357" fill="white"/>
</clipPath>
</defs>
</svg>
