<svg width="112" height="112" viewBox="0 0 112 112" fill="none" xmlns="http://www.w3.org/2000/svg">
<path d="M48.3343 66.8729C49.231 67.9033 50.8294 67.9102 51.7348 66.8874L67.6711 48.8871C68.4993 47.9516 68.4124 46.5218 67.4769 45.6936C66.5414 44.8654 65.1116 44.9523 64.2834 45.8878L50.0869 61.9942L45.094 56.2564C44.2738 55.3138 42.8448 55.2146 41.9023 56.0348C40.9597 56.855 40.8605 58.2839 41.6807 59.2265L48.3343 66.8729Z" fill="#5BC500"/>
<path fill-rule="evenodd" clip-rule="evenodd" d="M0 56C0 86.9279 25.0721 112 56 112C86.9279 112 112 86.9279 112 56C112 25.0721 86.9279 0 56 0C25.0721 0 0 25.0721 0 56ZM109 55.9999C109 85.271 85.2711 109 56 109C26.7289 109 2.99998 85.271 2.99998 55.9999C2.99998 26.7288 26.7289 2.99987 56 2.99987C85.2711 2.99987 109 26.7288 109 55.9999Z" fill="#5BC500"/>
</svg>
