<svg width="112" height="112" viewBox="0 0 112 112" fill="none" xmlns="http://www.w3.org/2000/svg">
<path fill-rule="evenodd" clip-rule="evenodd" d="M0 56C0 86.9279 25.0721 112 56 112C86.9279 112 112 86.9279 112 56C112 25.0721 86.9279 0 56 0C25.0721 0 0 25.0721 0 56ZM109 56.0001C109 85.2712 85.2711 109 56 109C26.7289 109 2.99998 85.2712 2.99998 56.0001C2.99998 26.729 26.7289 3.0001 56 3.0001C85.2711 3.0001 109 26.729 109 56.0001Z" fill="#E9426D"/>
<path d="M64.1848 44.6546C65.0576 43.7819 66.4726 43.7819 67.3454 44.6546C68.2181 45.5274 68.2181 46.9424 67.3454 47.8152L59.1605 56.0001L67.3454 64.1849C68.2181 65.0577 68.2181 66.4727 67.3454 67.3455C66.4726 68.2183 65.0576 68.2183 64.1848 67.3455L55.9999 59.1606L47.8151 67.3455C46.9423 68.2183 45.5273 68.2183 44.6545 67.3455C43.7817 66.4727 43.7817 65.0577 44.6545 64.1849L52.8394 56.0001L44.6545 47.8152C43.7817 46.9424 43.7817 45.5274 44.6545 44.6546C45.5273 43.7819 46.9423 43.7819 47.8151 44.6546L55.9999 52.8395L64.1848 44.6546Z" fill="#E9426D"/>
</svg>
