<svg width="145" height="120" viewBox="0 0 145 120" fill="none" xmlns="http://www.w3.org/2000/svg">
<path fill-rule="evenodd" clip-rule="evenodd" d="M105.935 48.2407C106.015 44.5172 112.7 43.5881 118.921 43.7147C123.742 43.8123 133.423 44.9462 133.423 48.5786C133.423 51.2344 132.632 52.3901 129.242 53.0127C127.208 53.3861 111.825 55.1322 108.049 52.5457C106.745 51.6514 105.892 50.2884 105.935 48.2407Z" fill="#E5FCFC"/>
<path fill-rule="evenodd" clip-rule="evenodd" d="M65.3278 61.4814L123.14 62.8888C135.091 63.0646 137.359 65.6284 137.275 70.0641C137.138 77.295 125.247 76.8797 125.704 76.9063C125.65 76.9071 125.603 76.9144 125.552 76.916C120.024 77.0289 118.935 78.3878 118.935 80.5912C118.935 82.8945 120.111 84.2768 126.314 84.2768C127.261 84.2768 128.076 84.2413 128.802 84.1784C128.842 84.1824 129.06 84.1865 129.631 84.1849C129.869 84.1929 130.137 84.1994 130.392 84.2034C130.757 84.2091 131.115 84.2091 131.445 84.2042C142.917 84.4526 145.05 87.0035 144.999 91.3723C144.953 95.2853 143.134 98.0782 134.502 98.0782H59.2636L65.3278 61.4814Z" fill="#E5FCFC"/>
<path fill-rule="evenodd" clip-rule="evenodd" d="M46.0074 36.3887C45.9282 32.6652 39.2426 31.7369 33.0217 31.8627C28.2012 31.9603 18.5199 33.095 18.5199 36.7266C18.5199 39.3832 19.3111 40.5381 22.7011 41.1607C24.7352 41.5341 40.1178 43.2802 43.8934 40.6938C45.1977 39.7994 46.0511 38.4372 46.0074 36.3887Z" fill="#E5FCFC"/>
<path fill-rule="evenodd" clip-rule="evenodd" d="M79.6722 48.8889L21.8598 50.2962C9.90929 50.4712 7.64089 53.035 7.72493 57.4715C7.8615 64.7025 19.7531 64.2871 19.2965 64.3129C19.349 64.3145 19.3967 64.3218 19.4484 64.3234C24.976 64.4363 26.0653 65.7944 26.0653 67.9978C26.0653 70.3019 24.8887 71.6842 18.6855 71.6834C17.7392 71.6834 16.9238 71.6487 16.1981 71.5858C16.1577 71.5898 15.9395 71.5939 15.369 71.5915C15.1314 71.6003 14.8631 71.6068 14.6077 71.6108C14.2433 71.6165 13.8853 71.6157 13.5547 71.6116C2.08341 71.86 -0.0500329 74.4109 0.000878959 78.7797C0.046942 82.6928 1.86603 85.4848 10.4976 85.4848H85.7364L79.6722 48.8889Z" fill="#E5FCFC"/>
<path fill-rule="evenodd" clip-rule="evenodd" d="M111.86 115.556C111.86 118.01 95.7738 120 75.9311 120C56.0881 120 40.0024 118.01 40.0024 115.556C40.0024 113.101 56.0881 111.111 75.9311 111.111C95.7738 111.111 111.86 113.101 111.86 115.556Z" fill="#E7EFF5"/>
<g filter="url(#filter0_d)">
<path d="M105.779 43.7037L42.6068 43.7037C39.1228 43.7037 36.2987 45.2954 36.2987 48.1481C36.2987 63.5322 36.2987 79.637 36.2987 95.0211C36.2987 97.7708 39.0211 100 42.3792 100H105.552C109.036 100 111.86 97.6875 111.86 94.8347V48.1481C111.86 45.3984 109.137 43.7037 105.779 43.7037Z" fill="#92F0F9"/>
</g>
<rect opacity="0.5" x="65.9308" y="39.2593" width="16.2975" height="60.7407" fill="white"/>
<path fill-rule="evenodd" clip-rule="evenodd" d="M52.4901 20.2686C52.501 18.8752 53.2535 17.8523 53.9401 17.3695C56.0941 15.5927 59.5127 16.4524 64.3854 19.9936C66.6017 21.6042 69.1142 23.7906 71.2783 25.9925C74.8506 29.6273 74.8694 30.4475 74.4763 31.3676C74.371 31.6119 74.2153 31.8221 74.0235 31.989C73.7052 32.2659 73.2898 32.4144 72.8497 32.4142C71.7028 31.1805 70.2316 29.8244 69.4284 29.0861C66.5188 26.4115 60.2971 21.1898 56.544 19.4765C55.0989 19.3759 54.0684 20.2723 55.8611 22.3332L54.2818 24.1595C53.5268 23.3061 52.473 22.57 52.4901 20.2686Z" fill="#FF7C9A"/>
<path fill-rule="evenodd" clip-rule="evenodd" d="M56.5439 19.4765C56.5439 19.4765 52.5561 21.1351 61.9221 25.6594C68.271 28.7263 69.4283 29.0861 69.4283 29.0861L71.7027 31.1806L72.8496 32.4138C72.7673 32.4105 72.6103 32.4077 72.5258 32.3917C67.3766 31.5371 62.5321 29.4909 59.3459 27.9003C58.8789 27.6672 51.3917 23.9584 52.6566 19.69C53.239 18.2784 54.6844 18.379 56.5439 19.4765Z" fill="#FF406F"/>
<path fill-rule="evenodd" clip-rule="evenodd" d="M96.5192 23.3331C96.7015 21.9516 96.098 20.8343 95.4849 20.261C93.5978 18.203 90.093 18.5808 84.7767 21.4129C82.3587 22.7009 79.5674 24.5182 77.1191 26.3991C73.0777 29.504 72.9454 30.3137 73.2072 31.2794C73.2777 31.5359 73.4027 31.7656 73.5695 31.9575C73.8464 32.2758 74.2372 32.4804 74.6731 32.5412C75.9799 31.4783 77.6248 30.3391 78.5226 29.7191C81.7747 27.4733 88.6599 23.1639 92.6142 21.987C94.0593 22.0876 94.9557 23.1181 92.8947 24.9108L94.2057 26.9382C95.0716 26.1977 96.2173 25.6146 96.5192 23.3331Z" fill="#FF7C9A"/>
<path fill-rule="evenodd" clip-rule="evenodd" d="M92.6142 21.987C92.6142 21.987 96.3338 24.1821 86.4313 27.3653C79.7186 29.5231 78.5227 29.7191 78.5227 29.7191L75.98 31.4783L74.6733 32.5408C74.7552 32.549 74.9111 32.5679 74.997 32.5638C80.215 32.4308 85.2963 31.0753 88.6722 29.9415C89.1669 29.7753 97.0958 27.1394 96.4345 22.737C96.0533 21.2583 94.6078 21.1577 92.6142 21.987Z" fill="#FF406F"/>
<g opacity="0.74">
<path d="M111.86 65.1851C77.7832 49.9999 36.2987 48.1481 36.2987 48.1481H111.86V65.1851Z" fill="#6AE0F3" style="mix-blend-mode:multiply"/>
</g>
<path d="M110.378 31.8518H37.7805C34.2966 31.8518 32.5948 33.1382 32.595 36.6666C32.595 37.3151 32.595 44.508 32.595 45.5555C32.595 48.1481 34.0766 48.1481 36.2989 48.1481C36.2989 48.1481 109.638 48.1481 111.86 48.1481C114.082 48.1481 115.564 48.1481 115.564 45.9259V36.6666C115.564 33.2657 113.737 31.8518 110.378 31.8518Z" fill="#00A9E0"/>
<path opacity="0.74" d="M115.564 37.037C89.2655 45.9259 35.5579 48.1481 35.5579 48.1481H75.1904H112.601C114.453 48.1481 115.564 47.7777 115.564 45.9258V37.037Z" fill="#00A4C7"/>
<path fill-rule="evenodd" clip-rule="evenodd" d="M65.1397 0.000544397C62.1061 0.0351187 60.7136 1.68019 60.7458 4.49409C60.7769 7.30911 62.2049 8.92184 65.2397 8.88838C68.2733 8.8538 69.6647 7.20874 69.6336 4.39372C69.6025 1.57981 68.1734 -0.0340299 65.1397 0.000544397Z" fill="#5BC500"/>
<path fill-rule="evenodd" clip-rule="evenodd" d="M74.4203 14.8145C72.6503 14.795 71.8384 13.8351 71.8566 12.1929C71.8749 10.5507 72.7087 9.60918 74.4787 9.62997C76.2487 9.64954 77.0606 10.6094 77.0412 12.2516C77.0229 13.8938 76.1903 14.8341 74.4203 14.8145Z" fill="#5BC500"/>
<path fill-rule="evenodd" clip-rule="evenodd" d="M99.7462 5.69956L98.0722 6.99512C97.8959 7.13142 97.7885 7.33957 97.7818 7.56327L97.7122 9.67882C97.6929 10.2692 97.0292 10.6062 96.5411 10.2729L94.7914 9.08105C94.607 8.95586 94.3759 8.91882 94.1611 8.98105L92.1277 9.56845C91.5596 9.73216 91.0344 9.20475 91.2003 8.63808L91.7937 6.60623C91.8559 6.39142 91.8196 6.16031 91.6944 5.97586L90.507 4.22327C90.1759 3.73364 90.5144 3.07142 91.1048 3.05364L93.2203 2.98919C93.444 2.98327 93.6522 2.8766 93.79 2.70105L95.09 1.02994C95.4522 0.56401 96.187 0.681047 96.387 1.23734L97.1018 3.22994C97.1766 3.44031 97.3418 3.60549 97.5522 3.68179L99.5425 4.40179C100.098 4.60327 100.214 5.33808 99.7462 5.69956Z" fill="#FFC55F"/>
<defs>
<filter id="filter0_d" x="36.2987" y="43.7037" width="75.5611" height="60.2963" filterUnits="userSpaceOnUse" color-interpolation-filters="sRGB">
<feFlood flood-opacity="0" result="BackgroundImageFix"/>
<feColorMatrix in="SourceAlpha" type="matrix" values="0 0 0 0 0 0 0 0 0 0 0 0 0 0 0 0 0 0 127 0"/>
<feOffset dy="4"/>
<feColorMatrix type="matrix" values="0 0 0 0 0.227451 0 0 0 0 0.835294 0 0 0 0 0.945098 0 0 0 1 0"/>
<feBlend mode="normal" in2="BackgroundImageFix" result="effect1_dropShadow"/>
<feBlend mode="normal" in="SourceGraphic" in2="effect1_dropShadow" result="shape"/>
</filter>
</defs>
</svg>
