<svg width="137" height="108" viewBox="0 0 137 108" fill="none" xmlns="http://www.w3.org/2000/svg">
<path fill-rule="evenodd" clip-rule="evenodd" d="M99.931 34.8795C100.006 31.3688 106.312 30.4929 112.181 30.6122C116.728 30.7042 125.861 31.7733 125.861 35.1981C125.861 37.702 125.114 38.7916 121.916 39.3786C119.998 39.7307 105.487 41.3769 101.925 38.9384C100.695 38.0951 99.8898 36.8101 99.931 34.8795Z" fill="#E5FCFC"/>
<path fill-rule="evenodd" clip-rule="evenodd" d="M61.8435 52.8145L116.379 54.1414C127.652 54.3071 129.792 56.7244 129.713 60.9064C129.584 67.724 118.367 67.3324 118.797 67.3575C118.747 67.3582 118.703 67.3651 118.654 67.3666C113.44 67.4731 112.412 68.7543 112.412 70.8316C112.412 73.0033 113.522 74.3066 119.374 74.3066C120.266 74.3066 121.035 74.2731 121.72 74.2138C121.758 74.2176 121.964 74.2214 122.502 74.2199C122.726 74.2275 122.979 74.2336 123.22 74.2374C123.564 74.2427 123.902 74.2427 124.214 74.2381C135.035 74.4723 137.047 76.8774 136.999 80.9964C136.956 84.6857 135.24 87.3189 127.097 87.3189H56.1231L61.8435 52.8145Z" fill="#E5FCFC"/>
<path fill-rule="evenodd" clip-rule="evenodd" d="M43.3999 23.7051C43.3252 20.1945 37.0185 19.3193 31.1502 19.4379C26.603 19.5299 17.4704 20.5997 17.4704 24.0237C17.4704 26.5284 18.2167 27.6173 21.4146 28.2043C23.3334 28.5563 37.8441 30.2025 41.4057 27.764C42.6361 26.9208 43.4411 25.6365 43.3999 23.7051Z" fill="#E5FCFC"/>
<path fill-rule="evenodd" clip-rule="evenodd" d="M75.1565 35.4905L20.6208 36.8173C9.34764 36.9823 7.20781 39.3996 7.28709 43.5824C7.41592 50.3999 18.6335 50.0083 18.2028 50.0327C18.2523 50.0342 18.2973 50.041 18.3461 50.0426C23.5603 50.149 24.588 51.4295 24.588 53.5068C24.588 55.6792 23.478 56.9825 17.6264 56.9818C16.7338 56.9818 15.9646 56.9491 15.28 56.8898C15.2419 56.8936 15.0361 56.8974 14.4979 56.8951C14.2738 56.9034 14.0207 56.9095 13.7798 56.9133C13.436 56.9186 13.0983 56.9179 12.7865 56.9141C1.96533 57.1483 -0.047197 59.5534 0.00082914 63.6723C0.0442814 67.3617 1.76026 69.9941 9.90261 69.9941H80.8769L75.1565 35.4905Z" fill="#E5FCFC"/>
<path fill-rule="evenodd" clip-rule="evenodd" d="M100.814 103.835C100.814 106.135 86.8542 108 69.6344 108C52.4142 108 38.4547 106.135 38.4547 103.835C38.4547 101.535 52.4142 99.6701 69.6344 99.6701C86.8542 99.6701 100.814 101.535 100.814 103.835Z" fill="#E7EFF5"/>
<g filter="url(#filter0_d)">
<path d="M99.7842 30.6018L40.1922 30.6018C36.9057 30.6018 34.2417 32.1025 34.2417 34.7922C34.2417 49.2967 34.2417 64.4807 34.2417 78.9852C34.2417 81.5777 36.8097 83.6795 39.9775 83.6795H99.5695C102.856 83.6795 105.52 81.4992 105.52 78.8095V34.7922C105.52 32.1997 102.952 30.6018 99.7842 30.6018Z" fill="#92F0F9"/>
</g>
<rect opacity="0.5" x="62.1938" y="26.4115" width="15.3738" height="57.268" fill="white"/>
<path fill-rule="evenodd" clip-rule="evenodd" d="M49.5151 8.50665C49.5254 7.19294 50.2352 6.22851 50.883 5.77331C52.9151 4.09812 56.1402 4.90864 60.737 8.24743C62.8278 9.76596 65.1982 11.8274 67.2397 13.9034C70.6098 17.3304 70.6275 18.1037 70.2567 18.9712C70.1573 19.2016 70.0105 19.3997 69.8296 19.5571C69.5293 19.8181 69.1374 19.9581 68.7222 19.958C67.6402 18.7948 66.2523 17.5163 65.4945 16.8201C62.7497 14.2984 56.8802 9.37526 53.3395 7.75985C51.9762 7.66501 51.004 8.51013 52.6953 10.4533L51.2054 12.1751C50.4932 11.3705 49.499 10.6765 49.5151 8.50665Z" fill="#FF7C9A"/>
<path fill-rule="evenodd" clip-rule="evenodd" d="M53.3395 7.75986C53.3395 7.75986 49.5774 9.32364 58.4132 13.5893C64.4028 16.4808 65.4945 16.8201 65.4945 16.8201L67.6402 18.7948L68.7222 19.9576C68.6446 19.9545 68.4965 19.9518 68.4167 19.9367C63.559 19.131 58.9887 17.2017 55.9829 15.7021C55.5424 15.4823 48.479 11.9854 49.6723 7.96113C50.2217 6.63018 51.5853 6.72505 53.3395 7.75986Z" fill="#FF406F"/>
<path fill-rule="evenodd" clip-rule="evenodd" d="M91.0484 11.3958C91.2204 10.0933 90.651 9.0399 90.0726 8.4994C88.2924 6.55901 84.986 6.91518 79.9706 9.58531C77.6895 10.7997 75.0562 12.5131 72.7466 14.2865C68.9339 17.2138 68.8092 17.9772 69.0561 18.8877C69.1226 19.1295 69.2406 19.3461 69.398 19.527C69.6592 19.8271 70.0278 20.02 70.4391 20.0773C71.6719 19.0752 73.2236 18.0012 74.0706 17.4166C77.1386 15.2993 83.634 11.2363 87.3644 10.1267C88.7277 10.2215 89.5734 11.1931 87.6291 12.8833L88.8659 14.7948C89.6828 14.0966 90.7636 13.5469 91.0484 11.3958Z" fill="#FF7C9A"/>
<path fill-rule="evenodd" clip-rule="evenodd" d="M87.3644 10.1268C87.3644 10.1268 90.8734 12.1964 81.5315 15.1975C75.1989 17.2319 74.0706 17.4167 74.0706 17.4167L71.6719 19.0754L70.4391 20.0771C70.5165 20.0848 70.6635 20.1026 70.7446 20.0987C75.6672 19.9734 80.4608 18.6955 83.6456 17.6265C84.1123 17.4698 91.5923 14.9846 90.9684 10.8339C90.6088 9.4397 89.2452 9.34485 87.3644 10.1268Z" fill="#FF406F"/>
<g opacity="0.74">
<path d="M105.52 50.855C73.3749 36.5381 34.2417 34.7921 34.2417 34.7921H105.52V50.855Z" fill="#6AE0F3" style="mix-blend-mode:multiply"/>
</g>
<path d="M104.122 19.4276H35.6392C32.3527 19.4276 30.7474 20.6405 30.7475 23.9671C30.7476 24.5785 30.7475 31.3602 30.7475 32.3478C30.7475 34.7922 32.1451 34.7922 34.2416 34.7922C34.2416 34.7922 103.423 34.7922 105.52 34.7922C107.616 34.7922 109.014 34.7922 109.014 32.697V23.9671C109.014 20.7606 107.29 19.4276 104.122 19.4276Z" fill="#00A9E0"/>
<path opacity="0.74" d="M109.014 24.3162C84.2062 32.6969 33.5427 34.7921 33.5427 34.7921H70.9289H106.219C107.966 34.7921 109.014 34.4429 109.014 32.6969V24.3162Z" fill="#00A4C7"/>
<defs>
<filter id="filter0_d" x="34.2417" y="30.6018" width="71.2783" height="57.0776" filterUnits="userSpaceOnUse" color-interpolation-filters="sRGB">
<feFlood flood-opacity="0" result="BackgroundImageFix"/>
<feColorMatrix in="SourceAlpha" type="matrix" values="0 0 0 0 0 0 0 0 0 0 0 0 0 0 0 0 0 0 127 0"/>
<feOffset dy="4"/>
<feColorMatrix type="matrix" values="0 0 0 0 0.227451 0 0 0 0 0.835294 0 0 0 0 0.945098 0 0 0 1 0"/>
<feBlend mode="normal" in2="BackgroundImageFix" result="effect1_dropShadow"/>
<feBlend mode="normal" in="SourceGraphic" in2="effect1_dropShadow" result="shape"/>
</filter>
</defs>
</svg>
